{
    "asset": {
        "generator": "FBX2glTF v0.9.7",
        "version": "2.0"
    },
    "scene": 0,
    "buffers": [
        {
            "byteLength": 5552,
            "uri": "buffer.bin"
        }
    ],
    "bufferViews": [
        {
            "buffer": 0,
            "byteLength": 816,
            "byteOffset": 0,
            "target": 34963
        },
        {
            "buffer": 0,
            "byteLength": 1776,
            "byteOffset": 816,
            "target": 34962
        },
        {
            "buffer": 0,
            "byteLength": 1776,
            "byteOffset": 2592,
            "target": 34962
        },
        {
            "buffer": 0,
            "byteLength": 1184,
            "byteOffset": 4368,
            "target": 34962
        }
    ],
    "scenes": [
        {
            "name": "Root Scene",
            "nodes": [
                0
            ]
        }
    ],
    "accessors": [
        {
            "componentType": 5123,
            "type": "SCALAR",
            "count": 408,
            "bufferView": 0,
            "byteOffset": 0
        },
        {
            "componentType": 5126,
            "type": "VEC3",
            "count": 148,
            "bufferView": 1,
            "byteOffset": 0,
            "min": [
                -0.0392908379435539,
                -0.0393304377794266,
                -0.00618075439706445
            ],
            "max": [
                0.0392908118665218,
                0.0393304228782654,
                0.00618073670193553
            ]
        },
        {
            "componentType": 5126,
            "type": "VEC3",
            "count": 148,
            "bufferView": 2,
            "byteOffset": 0
        },
        {
            "componentType": 5126,
            "type": "VEC2",
            "count": 148,
            "bufferView": 3,
            "byteOffset": 0
        }
    ],
    "samplers": [
        {}
    ],
    "materials": [
        {
            "name": "coin01",
            "alphaMode": "OPAQUE",
            "extras": {
                "fromFBX": {
                    "shadingModel": "Phong",
                    "isTruePBR": false
                }
            },
            "pbrMetallicRoughness": {
                "baseColorFactor": [
                    0.587999999523163,
                    0.587999999523163,
                    0.587999999523163,
                    1.0
                ],
                "metallicFactor": 0.400000005960464,
                "roughnessFactor": 0.333333373069763
            }
        }
    ],
    "meshes": [
        {
            "name": "coin01",
            "primitives": [
                {
                    "material": 0,
                    "mode": 4,
                    "attributes": {
                        "NORMAL": 2,
                        "POSITION": 1,
                        "TEXCOORD_0": 3
                    },
                    "indices": 0
                }
            ]
        }
    ],
    "nodes": [
        {
            "name": "RootNode",
            "translation": [
                0.0,
                0.0,
                0.0
            ],
            "rotation": [
                0.0,
                0.0,
                0.0,
                1.0
            ],
            "scale": [
                1.0,
                1.0,
                1.0
            ],
            "children": [
                1
            ]
        },
        {
            "name": "coin01",
            "translation": [
                0.0,
                -0.115516662597656,
                0.0
            ],
            "rotation": [
                1.0,
                0.0,
                0.0,
                8.14603424714733e-08
            ],
            "scale": [
                6.14392805099487,
                6.14392805099487,
                6.14392805099487
            ],
            "mesh": 0
        }
    ]
}